<?xml version="1.0" encoding="UTF-8" standalone="no"?>
<!-- Created with Inkscape (http://www.inkscape.org/) -->

<svg
   xmlns:dc="http://purl.org/dc/elements/1.1/"
   xmlns:cc="http://creativecommons.org/ns#"
   xmlns:rdf="http://www.w3.org/1999/02/22-rdf-syntax-ns#"
   xmlns:svg="http://www.w3.org/2000/svg"
   xmlns="http://www.w3.org/2000/svg"
   xmlns:sodipodi="http://sodipodi.sourceforge.net/DTD/sodipodi-0.dtd"
   xmlns:inkscape="http://www.inkscape.org/namespaces/inkscape"
   width="1000"
   height="289.65302"
   viewBox="0 0 264.58333 76.637362"
   version="1.1"
   id="svg5028"
   sodipodi:docname="Bank Negara Indonesia 2004.svg"
   inkscape:version="0.92.2 (5c3e80d, 2017-08-06)">
  <defs
     id="defs5022">
    <clipPath
       id="clipPath112"
       clipPathUnits="userSpaceOnUse">
      <path
         inkscape:connector-curvature="0"
         id="path114"
         d="M 0,0 H 595.276 V 841.89 H 0 Z" />
    </clipPath>
    <clipPath
       id="clipPath78"
       clipPathUnits="userSpaceOnUse">
      <path
         inkscape:connector-curvature="0"
         id="path80"
         d="M 0,0 H 595.276 V 841.89 H 0 Z" />
    </clipPath>
    <clipPath
       id="clipPath56"
       clipPathUnits="userSpaceOnUse">
      <path
         inkscape:connector-curvature="0"
         id="path58"
         d="M 0,0 H 595.276 V 841.89 H 0 Z" />
    </clipPath>
    <clipPath
       id="clipPath40"
       clipPathUnits="userSpaceOnUse">
      <path
         inkscape:connector-curvature="0"
         id="path42"
         d="M 0,0 H 595.276 V 841.89 H 0 Z" />
    </clipPath>
    <clipPath
       id="clipPath26"
       clipPathUnits="userSpaceOnUse">
      <path
         inkscape:connector-curvature="0"
         id="path28"
         d="M 0,0 H 595.276 V 841.89 H 0 Z" />
    </clipPath>
  </defs>
  <sodipodi:namedview
     id="base"
     pagecolor="#ffffff"
     bordercolor="#666666"
     borderopacity="1.0"
     inkscape:pageopacity="0.0"
     inkscape:pageshadow="2"
     inkscape:zoom="0.7"
     inkscape:cx="673.38379"
     inkscape:cy="154.52771"
     inkscape:document-units="px"
     inkscape:current-layer="layer1"
     showgrid="false"
     units="px"
     inkscape:window-width="1366"
     inkscape:window-height="705"
     inkscape:window-x="-8"
     inkscape:window-y="-8"
     inkscape:window-maximized="1" />
  <metadata
     id="metadata5025">
    <rdf:RDF>
      <cc:Work
         rdf:about="">
        <dc:format>image/svg+xml</dc:format>
        <dc:type
           rdf:resource="http://purl.org/dc/dcmitype/StillImage" />
        <dc:title></dc:title>
      </cc:Work>
    </rdf:RDF>
  </metadata>
  <g
     inkscape:label="Layer 1"
     inkscape:groupmode="layer"
     id="layer1"
     transform="translate(0,-220.36264)">
    <path
       d="M 72.536691,292.90204 H 8.8664083e-4 V 220.36267 H 72.536691 Z"
       style="fill:#ffffff;fill-opacity:1;fill-rule:nonzero;stroke:none;stroke-width:0.26500455"
       id="path176"
       inkscape:connector-curvature="0" />
    <path
       inkscape:connector-curvature="0"
       id="path188"
       style="fill:#f15a22;fill-opacity:1;fill-rule:nonzero;stroke:none;stroke-width:1.77871025"
       d="m 29.169071,269.32398 7.732054,-6.24149 c -1.29668,-1.62752 -2.527548,-3.26927 -3.687267,-4.96438 C 24.270503,245.17799 18.971725,232.01375 22.797731,220.3632 H 7.903e-7 v 12.5737 z" />
    <path
       inkscape:connector-curvature="0"
       id="path192"
       style="fill:#f15a22;fill-opacity:1;fill-rule:nonzero;stroke:none;stroke-width:1.77871025"
       d="m 41.361418,250.52123 c 0.483809,-4.10704 1.728906,-11.85333 9.261745,-17.60745 6.52253,-4.96616 14.685032,-5.92133 21.91371,-2.85128 v -9.6993 H 32.291774 c -2.655614,11.80174 4.320487,24.77032 9.069644,30.15803" />
    <path
       inkscape:connector-curvature="0"
       id="path196"
       style="fill:#f15a22;fill-opacity:1;fill-rule:nonzero;stroke:none;stroke-width:1.77871025"
       d="m 51.124048,238.68552 -0.02846,0.0213 c -7.573749,6.15434 -5.711439,15.81274 1.339368,24.47328 5.430403,6.68439 12.696435,11.37663 20.101206,7.81921 v -28.51628 c -6.652377,-6.81424 -14.637007,-9.30977 -21.412115,-3.79755" />
    <path
       inkscape:connector-curvature="0"
       id="path200"
       style="fill:#f15a22;fill-opacity:1;fill-rule:nonzero;stroke:none;stroke-width:1.77871025"
       d="m 3.4578121e-4,247.81084 v 45.08319 H 0.01101804 L 21.956746,275.1425 Z" />
    <path
       inkscape:connector-curvature="0"
       id="path212"
       style="fill:#f15a22;fill-opacity:1;fill-rule:nonzero;stroke:none;stroke-width:1.77871025"
       d="m 39.913726,266.65823 c -2.155797,1.7716 -4.818526,3.93984 -7.772964,6.35355 l 2.851273,3.55031 c 4.121271,5.1547 10.152878,14.08561 17.621683,11.66834 l 0.277478,0.33973 -5.307671,4.32405 h 24.953527 v -17.15033 c -12.838731,6.9761 -23.877407,0.62611 -32.623326,-9.08565" />
    <path
       inkscape:connector-curvature="0"
       id="path216"
       style="fill:#f15a22;fill-opacity:1;fill-rule:nonzero;stroke:none;stroke-width:1.77871025"
       d="m 27.87079,282.5124 -2.954438,-3.67482 C 18.859844,283.6988 12.502733,288.7948 7.3426944,292.89473 H 35.26311 c -1.812506,-3.84735 -5.106677,-7.53284 -7.39232,-10.38233" />
    <path
       inkscape:connector-curvature="0"
       id="path220"
       style="fill:#006885;fill-opacity:1;fill-rule:nonzero;stroke:none;stroke-width:1.77871025"
       d="m 132.95166,250.66264 c 6.68439,-1.16861 11.03512,-6.94053 11.03512,-14.30617 0,-9.81492 -8.49512,-15.99238 -23.0343,-15.99238 H 92.178284 v 0.3344 c 5.878637,3.22302 5.743455,8.42575 5.743455,13.39546 v 44.9658 c 0,5.05509 0.135182,10.31118 -5.743455,13.48262 v 0.32729 h 13.856156 c 13.53598,0 23.91831,0.23123 31.66638,-3.41157 8.23187,-3.86869 13.21937,-10.811 13.21937,-19.27588 0,-10.80389 -8.03799,-17.43136 -17.96853,-19.51957 m -23.74578,-23.6106 9.10699,0.14941 c 6.75377,0 13.65872,3.30662 13.65872,10.91239 0,9.03763 -6.11165,11.45311 -14.81843,11.45311 l -7.94728,0.0107 v -0.0107 z m 8.77793,58.3666 -8.77793,0.0125 v -28.58743 -0.40555 l 9.43783,-0.0427 c 10.98354,0 20.04963,4.07859 20.04963,14.77219 0,10.47127 -9.51788,14.25103 -20.70953,14.25103" />
    <path
       inkscape:connector-curvature="0"
       id="path224"
       style="fill:#006885;fill-opacity:1;fill-rule:nonzero;stroke:none;stroke-width:1.77871025"
       d="m 172.98029,279.06348 c 0,6.18635 -0.11206,10.57799 5.731,14.01268 v 0.31127 h -19.50533 v -0.31127 c 5.83595,-3.43469 5.73456,-7.82633 5.73456,-14.01268 v -44.06043 c 0,-6.14011 0.10139,-11.00844 -5.72745,-14.29905 v -0.33974 h 16.1916 v 0.1085 c 0.43045,1.31447 1.14727,2.05263 1.64709,2.76412 0.51938,0.68658 1.54036,2.19315 1.54036,2.19315 l 37.14303,50.06002 v -40.91567 c 0,-6.16857 0.096,-10.57977 -5.72745,-13.87038 v -0.33974 h 19.38794 v 0.33974 c -5.72566,3.29061 -5.72566,7.70181 -5.72566,13.87038 v 62.42561 c -3.54142,-1.40518 -13.41504,-9.62638 -20.44628,-19.08556 -12.62173,-16.95111 -30.24341,-40.52613 -30.24341,-40.52613 z" />
    <path
       inkscape:connector-curvature="0"
       id="path228"
       style="fill:#006885;fill-opacity:1;fill-rule:nonzero;stroke:none;stroke-width:1.77871025"
       d="m 247.48104,233.50769 c 0,-5.06755 -0.0872,-9.58547 -5.71855,-12.80316 v -0.34151 h 22.82085 v 0.34151 c -5.65452,3.11986 -5.70432,7.83522 -5.70432,12.80316 v 46.3443 c 0,4.95193 -0.13163,9.97145 5.70432,13.19981 v 0.32728 h -22.82085 v -0.32728 c 5.86974,-3.27461 5.71855,-8.20519 5.71855,-13.16958 z" />
  </g>
</svg>
