<?xml version="1.0" encoding="UTF-8" standalone="no"?>
<!-- Created with Inkscape (http://www.inkscape.org/) -->

<svg
   width="104.8023mm"
   height="46.076775mm"
   viewBox="0 0 104.8023 46.076774"
   version="1.1"
   id="svg5"
   sodipodi:docname="Shopee Pay.svg"
   inkscape:version="1.1.1 (3bf5ae0d25, 2021-09-20)"
   xmlns:inkscape="http://www.inkscape.org/namespaces/inkscape"
   xmlns:sodipodi="http://sodipodi.sourceforge.net/DTD/sodipodi-0.dtd"
   xmlns="http://www.w3.org/2000/svg"
   xmlns:svg="http://www.w3.org/2000/svg">
  <sodipodi:namedview
     id="namedview7"
     pagecolor="#ffffff"
     bordercolor="#666666"
     borderopacity="1.0"
     inkscape:pageshadow="2"
     inkscape:pageopacity="0.0"
     inkscape:pagecheckerboard="0"
     inkscape:document-units="mm"
     showgrid="false"
     inkscape:zoom="0.66772387"
     inkscape:cx="412.5957"
     inkscape:cy="334.7192"
     inkscape:window-width="1366"
     inkscape:window-height="715"
     inkscape:window-x="-8"
     inkscape:window-y="-8"
     inkscape:window-maximized="1"
     inkscape:current-layer="layer1" />
  <defs
     id="defs2" />
  <g
     inkscape:label="Layer 1"
     inkscape:groupmode="layer"
     id="layer1"
     transform="translate(-156.54301,-59.756935)">
    <g
       id="Layer1002"
       transform="matrix(0.6388709,0,0,0.6388709,118.39552,-23.580132)">
      <path
         d="m 67.6443,142.0039 h 52.883 c 3.5171,0 6.3939,2.8774 6.3939,6.3939 v 37.0056 c 0,3.517 -2.8768,6.3938 -6.3939,6.3938 H 66.1046 c -3.517,0 -6.3938,-2.8768 -6.3938,-6.3938 v -45.7116 c 0,-1.6633 1.3734,-2.8127 3.0234,-3.0234 l 48.7644,-6.2241 c 1.6633,6e-4 3.0229,1.3601 3.0229,3.0234 v 5.1734 H 64.5966 c 0,2.1718 0.6478,3.3628 3.0477,3.3628 z m 29.6581,40.5504 v 0 c -4.4477,0.8533 -10.1661,-0.6287 -13.2778,-3.9725 -1.4058,-1.508 0.8596,-3.7867 2.2717,-2.2654 2.0923,2.2527 5.8206,3.3051 8.8625,3.2341 3.8767,-0.0831 7.3296,-3.6129 5.1283,-7.5531 -3.0488,-5.4551 -10.5638,-3.9275 -14.4272,-8.2147 -3.1256,-3.4593 -1.6431,-8.9011 2.0275,-11.3143 3.8248,-2.5159 10.4293,-2.4195 13.5734,1.1876 1.355,1.546 -0.911,3.8241 -2.2712,2.2648 -2.5419,-2.9131 -8.5426,-2.5159 -10.8334,0.4815 -3.2601,4.2802 1.6171,6.5849 5.025,7.6177 4.685,1.4185 9.8837,4.0112 10.7364,9.3826 0.6807,4.3253 -2.6695,8.3492 -6.8152,9.1517 z"
         style="fill:#ed4c2f;fill-rule:evenodd"
         id="path840" />
      <path
         d="m 97.3025,182.5541 v 0 c -4.4474,0.8539 -10.1657,-0.6284 -13.278,-3.9723 -1.4058,-1.5081 0.8597,-3.7865 2.2717,-2.2655 2.092,2.2526 5.8207,3.3052 8.8627,3.2345 3.8767,-0.0831 7.3292,-3.613 5.1277,-7.5533 -3.0482,-5.4551 -10.5633,-3.9279 -14.4271,-8.2147 -3.1252,-3.4592 -1.6429,-8.9014 2.028,-11.3145 3.8251,-2.5158 10.429,-2.4193 13.5737,1.1875 1.3542,1.5463 -0.9113,3.8247 -2.2717,2.265 -2.5417,-2.9135 -8.5425,-2.5159 -10.8333,0.4812 -3.2599,4.281 1.6171,6.5847 5.0251,7.6183 4.6848,1.4182 9.8833,4.011 10.7367,9.3825 0.6805,4.3255 -2.6697,8.3495 -6.8155,9.1513 z"
         style="fill:#ffffff;fill-rule:evenodd"
         id="path842" />
      <path
         d="m 188.3845,139.7317 c -1.8899,0 -3.5912,0.8024 -4.7569,2.0743 v -1.4758 c 0,-1.3344 -2.1428,-1.3385 -2.1428,0 v 17.4603 c 0,1.3386 2.1428,1.3427 2.1428,0 v -7.774 c 1.1699,1.2722 2.867,2.0704 4.7569,2.0704 3.5099,0 6.3641,-2.7687 6.3641,-6.1776 0,-3.4048 -2.8542,-6.1776 -6.3641,-6.1776 z m 0,10.1227 v 0 c -2.2456,0 -4.0669,-1.771 -4.0669,-3.9451 0,-1.9581 1.4785,-3.5919 3.4156,-3.8954 0.008,0 0.0214,-0.004 0.0342,-0.004 0.2015,-0.0292 0.4072,-0.0459 0.6171,-0.0459 1.6585,0 3.0899,0.9686 3.7199,2.3571 0,0.004 0.004,0.0126 0.004,0.0167 0.2186,0.4823 0.3386,1.0144 0.3386,1.5715 0,2.1741 -1.8213,3.9451 -4.0628,3.9451 z m -15.8049,2.2333 c -3.5115,0 -6.3685,-2.7712 -6.3685,-6.1776 0,-3.4065 2.857,-6.1777 6.3685,-6.1777 3.5116,0 6.3682,2.7712 6.3682,6.1777 0,3.4064 -2.8566,6.1776 -6.3682,6.1776 z m 0,-10.1225 v 0 c -2.2425,0 -4.0668,1.7698 -4.0668,3.9449 0,2.175 1.8243,3.9448 4.0668,3.9448 2.242,0 4.0663,-1.7698 4.0663,-3.9448 0,-2.1751 -1.8243,-3.9449 -4.0663,-3.9449 z m 51.1734,3.8225 c -0.0514,-2.8393 -1.5513,-5.4042 -4.6542,-5.9737 -2.6741,-0.4906 -5.7982,0.877 -6.9382,3.3048 -1.1828,2.5235 -0.6857,5.9864 1.6456,7.7449 2.5242,1.8998 6.4627,1.3137 9.0511,-0.0915 1.2042,-0.6525 0.1243,-2.4485 -1.0842,-1.7959 -1.6414,0.8939 -3.7841,1.3303 -5.6227,0.7359 -1.3757,-0.4448 -2.147,-1.5964 -2.3785,-2.8851 h 8.9097 c 0.57,0 1.08,-0.4781 1.0714,-1.0394 z m -9.9039,-1.0392 v 0 c 0.0171,-0.0791 0.0386,-0.1538 0.0601,-0.2286 0.5143,-1.692 2.2671,-2.6731 4.0412,-2.7188 2.0399,-0.0542 3.1841,1.3095 3.5399,2.9474 z m -4.3582,1.0568 c -0.0513,-2.8394 -1.5514,-5.4044 -4.6541,-5.9738 -2.6741,-0.4906 -5.7984,0.8771 -6.9383,3.3049 -1.1829,2.5234 -0.6858,5.9863 1.6456,7.7448 2.5243,1.8999 6.4628,1.3137 9.0512,-0.0915 1.2041,-0.6526 0.1242,-2.4484 -1.0843,-1.7957 -1.6414,0.8937 -3.7841,1.3301 -5.6226,0.7357 -1.3758,-0.4448 -2.1471,-1.5963 -2.3785,-2.885 h 8.9097 c 0.5699,0 1.0799,-0.4782 1.0713,-1.0394 z m -9.9038,-1.0392 v 0 c 0.017,-0.0791 0.0385,-0.1538 0.0599,-0.2286 0.5143,-1.6921 2.267,-2.6733 4.0412,-2.7189 2.04,-0.0541 3.1842,1.3095 3.5398,2.9475 z m -35.8874,-0.963 v 7.2176 c 0,1.3605 -2.1427,1.3605 -2.1427,0 v -7.0767 c -0.0728,-1.3994 -1.2678,-2.0416 -1.3066,-2.0585 -1.5251,-0.6613 -4.2947,-0.3581 -5.9446,1.7333 v 7.4019 c 0,1.3605 -2.1427,1.3605 -2.1427,0 v -18.5389 c 0,-1.3605 2.1427,-1.3561 2.1427,0 v 8.3272 c 2.6271,-1.7532 5.9686,-1.5576 7.5385,-0.4834 0,0 1.8877,1.0307 1.8554,3.4775 z m -15.0506,-10.4689 c -2.1013,-2.3156 -6.5079,-2.3774 -9.0655,-0.7607 -2.4483,1.5476 -3.4388,5.0441 -1.3545,7.2653 2.5822,2.7522 7.599,1.7708 9.635,5.2722 1.4716,2.5306 -0.834,4.7963 -3.4227,4.8515 -2.0303,0.0432 -4.5213,-0.6332 -5.9195,-2.0799 -0.9408,-0.9734 -2.4535,0.4859 -1.5153,1.4566 2.0752,2.1472 5.8974,3.099 8.8637,2.5488 2.7702,-0.5137 5.0066,-3.0994 4.5508,-5.8757 -0.5659,-3.4475 -4.0376,-5.1128 -7.1672,-6.0221 -2.2781,-0.6619 -5.534,-2.1433 -3.3545,-4.8891 1.5298,-1.9274 5.5357,-2.1822 7.2346,-0.3103 0.9083,1.0009 2.4186,-0.4612 1.5151,-1.4566 z"
         style="fill:#ed4c2f;fill-rule:evenodd"
         id="path844" />
      <path
         d="m 204.5158,202.5665 h -6.8049 l 7.2835,-13.7621 -11.954,-22.5871 h 7.3822 l 8.2631,15.613 8.2632,-15.613 h 6.8049 z m -67.8056,-10.7693 h 5.7062 v -10.4235 l 7.6882,0.002 c 7.9762,0 14.4428,-5.5948 14.4428,-12.4967 0,-6.9012 -6.4666,-12.496 -14.4428,-12.496 h -13.3944 c 0,11.805 0,23.6094 0,35.4145 z m 5.7062,-16.1298 v -13.5785 h 7.6882 c 4.3339,0 7.8469,3.039 7.8469,6.7887 0,3.7497 -3.513,6.7898 -7.8469,6.7898 z m 43.4924,-9.2301 h 5.0082 v 25.1393 h -5.0082 v -2.8259 c -2.232,1.8993 -5.1238,3.0465 -8.2846,3.0465 -7.0641,0 -12.7899,-5.7259 -12.7899,-12.79 0,-7.064 5.7258,-12.7899 12.7899,-12.7899 3.1608,0 6.0526,1.1471 8.2846,3.0465 z m -8.2846,5.1693 c 4.0874,0 7.4007,3.3132 7.4007,7.4006 0,4.0875 -3.3133,7.4007 -7.4007,7.4007 -4.0874,0 -7.4006,-3.3132 -7.4006,-7.4007 0,-4.0874 3.3132,-7.4006 7.4006,-7.4006 z"
         style="fill:#ed4c2f;fill-rule:evenodd"
         id="path846" />
    </g>
  </g>
</svg>
